<svg id="visual" viewBox="0 0 900 600" width="100%" height="100%" xmlns="http://www.w3.org/2000/svg" xmlns:xlink="http://www.w3.org/1999/xlink" version="1.1"><path d="M0 567L16.7 568.3C33.3 569.7 66.7 572.3 100 575.5C133.3 578.7 166.7 582.3 200 583.5C233.3 584.7 266.7 583.3 300 578.2C333.3 573 366.7 564 400 563C433.3 562 466.7 569 500 572.8C533.3 576.7 566.7 577.3 600 578C633.3 578.7 666.7 579.3 700 579.3C733.3 579.3 766.7 578.7 800 577C833.3 575.3 866.7 572.7 883.3 571.3L900 570L900 601L883.3 601C866.7 601 833.3 601 800 601C766.7 601 733.3 601 700 601C666.7 601 633.3 601 600 601C566.7 601 533.3 601 500 601C466.7 601 433.3 601 400 601C366.7 601 333.3 601 300 601C266.7 601 233.3 601 200 601C166.7 601 133.3 601 100 601C66.7 601 33.3 601 16.7 601L0 601Z" fill="#000000" stroke-linecap="round" stroke-linejoin="miter"></path></svg>
